<?xml version="1.0" encoding="UTF-8"?>
<svg id="Layer_1" data-name="Layer 1" xmlns="http://www.w3.org/2000/svg" viewBox="0 0 1466.93 1659.72">
  <defs>
    <style>
      .cls-1 {
        fill: #f89e41;
      }

      .cls-1, .cls-2, .cls-3, .cls-4, .cls-5, .cls-6, .cls-7, .cls-8, .cls-9, .cls-10, .cls-11, .cls-12, .cls-13, .cls-14, .cls-15, .cls-16, .cls-17, .cls-18, .cls-19, .cls-20, .cls-21, .cls-22, .cls-23, .cls-24, .cls-25, .cls-26, .cls-27, .cls-28 {
        stroke-width: 0px;
      }

      .cls-1, .cls-29, .cls-30, .cls-31, .cls-32, .cls-33, .cls-34, .cls-35, .cls-36, .cls-37, .cls-38, .cls-39, .cls-40, .cls-41, .cls-42, .cls-43, .cls-44, .cls-45, .cls-46, .cls-47, .cls-48, .cls-49, .cls-50, .cls-51, .cls-52, .cls-53, .cls-54, .cls-55, .cls-56, .cls-57, .cls-58, .cls-59, .cls-60, .cls-61, .cls-62, .cls-5, .cls-63, .cls-64, .cls-65, .cls-66, .cls-67, .cls-68, .cls-69, .cls-70, .cls-6, .cls-71, .cls-72, .cls-10, .cls-11, .cls-73, .cls-13, .cls-74, .cls-75, .cls-15, .cls-17, .cls-76, .cls-18, .cls-77, .cls-78, .cls-79, .cls-80, .cls-21, .cls-22, .cls-23, .cls-81, .cls-25 {
        isolation: isolate;
      }

      .cls-1, .cls-5, .cls-6, .cls-10, .cls-11, .cls-13, .cls-15, .cls-17, .cls-18, .cls-21, .cls-22, .cls-23, .cls-25 {
        opacity: .5;
      }

      .cls-82 {
        letter-spacing: -.02em;
      }

      .cls-2 {
        fill: #42c6f0;
      }

      .cls-29 {
        fill: #36a1c3;
        font-size: 24.82px;
      }

      .cls-29, .cls-30, .cls-31, .cls-32, .cls-33, .cls-34, .cls-35, .cls-36, .cls-37, .cls-38, .cls-39, .cls-40, .cls-41, .cls-42, .cls-43, .cls-44, .cls-45, .cls-46, .cls-47, .cls-48, .cls-49, .cls-50, .cls-51, .cls-52, .cls-53, .cls-54, .cls-55, .cls-56, .cls-57, .cls-58, .cls-59, .cls-60, .cls-61, .cls-62, .cls-63, .cls-64, .cls-65, .cls-66, .cls-67, .cls-68, .cls-69, .cls-70, .cls-71, .cls-72, .cls-73, .cls-74, .cls-75, .cls-76, .cls-77, .cls-83, .cls-78, .cls-79, .cls-80, .cls-81 {
        font-family: TimesNewRomanPSMT, 'Times New Roman';
      }

      .cls-3 {
        fill: #9fd8d6;
      }

      .cls-30 {
        font-size: 24.82px;
      }

      .cls-30, .cls-31, .cls-32, .cls-33, .cls-34, .cls-35, .cls-36, .cls-37, .cls-38, .cls-39, .cls-40, .cls-41, .cls-42, .cls-43, .cls-44, .cls-45, .cls-46, .cls-47, .cls-48, .cls-49, .cls-50, .cls-51, .cls-52, .cls-53, .cls-54, .cls-55, .cls-56, .cls-57, .cls-58, .cls-59, .cls-60, .cls-62, .cls-63, .cls-64, .cls-65, .cls-66, .cls-67, .cls-68, .cls-69, .cls-70 {
        fill: #6d6e70;
      }

      .cls-31 {
        font-size: 24.82px;
      }

      .cls-32 {
        font-size: 24.82px;
      }

      .cls-33, .cls-81 {
        font-size: 24.82px;
      }

      .cls-34 {
        font-size: 24.82px;
      }

      .cls-35 {
        font-size: 24.82px;
      }

      .cls-36 {
        font-size: 24.82px;
      }

      .cls-37 {
        font-size: 24.82px;
      }

      .cls-38 {
        font-size: 24.82px;
      }

      .cls-4 {
        fill: #aad4f1;
      }

      .cls-39 {
        font-size: 24.82px;
      }

      .cls-40 {
        font-size: 24.82px;
      }

      .cls-41 {
        font-size: 24.82px;
      }

      .cls-42, .cls-72 {
        font-size: 24.82px;
      }

      .cls-43 {
        font-size: 24.82px;
      }

      .cls-44, .cls-73 {
        font-size: 24.82px;
      }

      .cls-45 {
        font-size: 24.82px;
      }

      .cls-46 {
        font-size: 24.82px;
      }

      .cls-47 {
        font-size: 24.82px;
      }

      .cls-48 {
        font-size: 24.82px;
      }

      .cls-49 {
        font-size: 24.82px;
      }

      .cls-50 {
        font-size: 24.82px;
      }

      .cls-51 {
        font-size: 24.82px;
      }

      .cls-52 {
        font-size: 24.82px;
      }

      .cls-53 {
        font-size: 24.82px;
      }

      .cls-54 {
        font-size: 24.82px;
      }

      .cls-55 {
        font-size: 24.82px;
      }

      .cls-56 {
        font-size: 24.82px;
      }

      .cls-57 {
        font-size: 24.82px;
      }

      .cls-58 {
        font-size: 24.82px;
      }

      .cls-59 {
        font-size: 24.82px;
      }

      .cls-60 {
        font-size: 24.82px;
      }

      .cls-61 {
        fill: #4b95bd;
        font-size: 24.82px;
      }

      .cls-62 {
        font-size: 24.82px;
      }

      .cls-5 {
        fill: #9db5de;
      }

      .cls-63 {
        font-size: 24.82px;
      }

      .cls-64 {
        font-size: 24.82px;
      }

      .cls-65 {
        font-size: 24.82px;
      }

      .cls-66 {
        font-size: 24.82px;
      }

      .cls-67 {
        font-size: 24.82px;
      }

      .cls-68 {
        font-size: 24.82px;
      }

      .cls-69 {
        font-size: 24.82px;
      }

      .cls-70 {
        font-size: 24.82px;
      }

      .cls-6 {
        fill: #b6def6;
      }

      .cls-7 {
        fill: #f89b3c;
      }

      .cls-84 {
        letter-spacing: -.08em;
      }

      .cls-71 {
        fill: #bfbd43;
        font-size: 24.82px;
      }

      .cls-8 {
        fill: #ef4e41;
      }

      .cls-72 {
        fill: #8ca746;
      }

      .cls-9 {
        fill: #73c065;
      }

      .cls-10 {
        fill: #ef5549;
      }

      .cls-11 {
        fill: #ed428a;
      }

      .cls-73 {
        fill: #59934e;
      }

      .cls-12 {
        fill: #5db9e8;
      }

      .cls-13 {
        fill: #58caf4;
      }

      .cls-74 {
        fill: #c44034;
        font-size: 24.82px;
      }

      .cls-85 {
        stroke: #fff;
      }

      .cls-85, .cls-14, .cls-83 {
        fill: #58595b;
      }

      .cls-85, .cls-86, .cls-87 {
        stroke-miterlimit: 10;
      }

      .cls-75 {
        fill: #8aadc4;
        font-size: 24.82px;
      }

      .cls-15 {
        fill: #f9ef64;
      }

      .cls-16 {
        fill: #ebe855;
      }

      .cls-17 {
        fill: #fdd506;
      }

      .cls-88 {
        letter-spacing: -.04em;
      }

      .cls-76 {
        fill: #5e749e;
        font-size: 24.82px;
      }

      .cls-89 {
        letter-spacing: 0em;
      }

      .cls-86, .cls-87 {
        fill: none;
        stroke: #a6a8ab;
      }

      .cls-18 {
        fill: #c3e7ed;
      }

      .cls-90 {
        letter-spacing: -.06em;
      }

      .cls-77 {
        fill: #d1b02b;
        font-size: 24.82px;
      }

      .cls-83 {
        font-size: 28.35px;
      }

      .cls-19 {
        fill: #7f7dba;
      }

      .cls-78 {
        fill: #c12f6b;
        font-size: 24.82px;
      }

      .cls-79 {
        fill: #7facaa;
        font-size: 24.82px;
      }

      .cls-20 {
        fill: #fdd40a;
      }

      .cls-80 {
        fill: #62608e;
        font-size: 24.82px;
      }

      .cls-21 {
        fill: #a6d179;
      }

      .cls-22 {
        fill: #72c6ef;
      }

      .cls-23 {
        fill: #d5e16a;
      }

      .cls-24 {
        fill: #7993ca;
      }

      .cls-81 {
        fill: #cc802f;
      }

      .cls-25 {
        fill: #ada8d2;
      }

      .cls-26 {
        fill: #b2d35a;
      }

      .cls-87 {
        stroke-width: 2px;
      }

      .cls-27 {
        fill: #a6a8ab;
      }

      .cls-91 {
        letter-spacing: -.04em;
      }

      .cls-92 {
        letter-spacing: 0em;
      }

      .cls-28 {
        fill: #ed3982;
      }

      .cls-93 {
        letter-spacing: 0em;
      }
    </style>
  </defs>
  <g>
    <path class="cls-5" d="M875.29,360.59c13.38,2.55,26.64,5.72,39.72,9.49-81.93,284.36,11.15,363.88,279.23,238.56,1.15,2.47,2.28,4.95,3.39,7.43-270.34,120.36-377.79,35.2-322.35-255.49Z"/>
    <path class="cls-5" d="M349.16,825.33c-.88-13.56-1.13-27.16-.77-40.74,295.82,8.02,578.9-48.15,849.25-168.51,1.11,2.48,2.19,4.98,3.25,7.48-272.51,115.38-556.42,182.64-851.73,201.78Z"/>
    <path class="cls-10" d="M348.39,784.59c.33-12.03,1.14-24.03,2.44-35.99,294.19,32.02,581.14,96.33,860.86,192.94-.79,2.27-1.59,4.54-2.41,6.8-278.11-101.14-565.07-155.73-860.89-163.75Z"/>
    <path class="cls-10" d="M915.02,370.08c10.74,3.1,21.37,6.6,31.85,10.49-103.16,277.36-15.69,466.62,262.42,567.76-.76,2.1-1.54,4.2-2.34,6.29-276.55-105.33-373.86-300.18-291.93-584.54Z"/>
    <path class="cls-25" d="M423.22,549.73c4.41-6.59,9-13.06,13.75-19.4,236.76,177.53,481.57,189.41,734.42,35.65.82,1.35,1.64,2.71,2.45,4.08-254.48,151.04-504.69,144.26-750.62-20.33Z"/>
    <path class="cls-22" d="M436.97,530.33c4.45-5.94,9.05-11.76,13.79-17.46,227.57,189.17,483.35,242.16,767.35,158.97.42,1.42.83,2.85,1.23,4.28-284.81,80.34-545.6,31.74-782.37-145.79Z"/>
    <path class="cls-18" d="M745.68,1238.08c-7.29-.77-14.56-1.71-21.8-2.84,45.49-292.41,215.31-454.86,509.45-487.36.16,1.46.31,2.91.46,4.37-294.45,29.58-457.15,191.52-488.11,485.83Z"/>
    <path class="cls-17" d="M1067.36,1144.88c-5.68,4.49-11.48,8.84-17.37,13.05-171.91-240.88-112.67-332.83,177.73-275.85-.28,1.42-.56,2.84-.86,4.26-289.82-59.81-342.99,26.37-159.49,258.54Z"/>
    <path class="cls-18" d="M450.77,512.86c4.6-5.53,9.33-10.96,14.2-16.26,218.1,200.01,474.38,285.23,768.83,255.65.14,1.43.28,2.86.41,4.3-294.72,26.71-555.86-54.51-783.43-243.68Z"/>
    <path class="cls-11" d="M1049.98,1157.93c-5.78,4.13-11.67,8.12-17.64,11.96-160.15-248.85-107.31-309.71,166.17-194.71-.57,1.3-1.15,2.6-1.73,3.9-269.77-121.64-318.7-62.03-146.79,178.85Z"/>
    <path class="cls-25" d="M1032.34,1169.9c-5.76,3.71-11.61,7.28-17.54,10.72-148.45-256-95.44-459.52,159.04-610.56.7,1.18,1.39,2.36,2.08,3.55-255.87,148.68-303.73,347.44-143.58,596.29Z"/>
    <path class="cls-13" d="M1014.8,1180.62c-5.88,3.41-11.85,6.69-17.88,9.83-136.53-262.55-59.99-424.23,229.63-485.03.28,1.33.55,2.66.82,4-290.16,58.14-361.02,215.2-212.56,471.2Z"/>
    <path class="cls-6" d="M996.92,1190.45c-5.94,3.09-11.95,6.05-18.03,8.86-124.51-268.46-47.86-453.65,229.97-555.57.46,1.26.92,2.52,1.37,3.78-278.73,99.4-349.83,280.38-213.3,542.93Z"/>
    <path class="cls-1" d="M611.2,391.27c6.11-2.73,12.28-5.32,18.51-7.77,108.27,275.41,305.18,451.95,590.74,529.62-.35,1.29-.71,2.58-1.07,3.87-284.84-80.25-487.57-255.49-608.18-525.73Z"/>
    <path class="cls-21" d="M978.89,1199.31c-5.99,2.78-12.04,5.42-18.14,7.93-112.42-273.74-20.71-414.33,275.13-421.75.03,1.32.06,2.64.08,3.96-295.89,4.78-381.58,141.4-257.07,409.86Z"/>
    <path class="cls-17" d="M633.3,1211.13c-6.01-2.3-11.97-4.74-17.88-7.3,117.8-271.47,321.61-377.3,611.43-317.49-.26,1.26-.53,2.52-.8,3.78-289.29-62.33-486.87,44.67-592.75,321.01Z"/>
    <path class="cls-25" d="M501.93,1132.53c-4.83-4.18-9.58-8.46-14.23-12.84,202.94-215.38,432.35-397.41,688.21-546.09.64,1.1,1.28,2.21,1.91,3.32-257.14,146.46-482.44,331.66-675.9,555.6Z"/>
    <path class="cls-13" d="M464.96,496.6c4.27-4.66,8.64-9.22,13.11-13.7,209.36,209.14,459.13,284.64,749.29,226.51.25,1.24.49,2.48.73,3.72-290.65,55.66-545.02-16.52-763.13-216.53Z"/>
    <path class="cls-22" d="M629.71,383.51c5.86-2.3,11.77-4.48,17.73-6.54,96.45,279.77,287.08,379.48,571.9,299.15.34,1.21.68,2.43,1.01,3.64-285.49,77.91-482.37-20.84-590.64-296.25Z"/>
    <path class="cls-11" d="M478.07,482.91c4.34-4.35,8.78-8.61,13.3-12.77,200.5,217.66,435.63,387.31,705.4,508.95-.51,1.12-1.02,2.24-1.53,3.36-268.75-123.88-507.81-290.39-717.17-499.53Z"/>
    <path class="cls-15" d="M491.37,470.14c4.31-3.97,8.7-7.86,13.17-11.66,191.72,225.43,434.56,355.17,728.52,389.21-.13,1.16-.27,2.33-.42,3.49-293.68-36.37-540.78-163.39-741.27-381.05Z"/>
    <path class="cls-1" d="M504.54,458.48c4.46-3.79,9-7.5,13.6-11.11,182.65,232.84,416.39,389.38,701.23,469.63-.32,1.13-.64,2.25-.97,3.38-284.2-82.5-522.15-236.47-713.87-461.9Z"/>
    <path class="cls-23" d="M374.37,946.71c-1.91-5.31-3.72-10.66-5.42-16.04,282.11-89.36,570.98-127.43,866.62-114.19-.05,1.13-.11,2.26-.16,3.38-295.52-15.49-582.53,26.79-861.03,126.85Z"/>
    <path class="cls-11" d="M615.42,1203.83c-5.16-2.24-10.27-4.57-15.33-7,128.02-266.8,326.41-338.27,595.16-214.38-.47,1.02-7.52,4.52-8,5.54-267.8-125.92-454.03-55.63-571.83,215.85Z"/>
    <path class="cls-21" d="M600.09,1196.83c-4.94-2.37-9.83-4.83-14.67-7.38,137.8-261.89,354.65-395.22,650.54-400,.02,1.09.03,2.19.04,3.28-295.92,2.59-507.89,137.29-635.91,404.09Z"/>
    <path class="cls-6" d="M585.42,1189.45c-4.59-2.42-9.14-4.91-13.65-7.49,146.9-256.89,359.71-435.04,638.45-534.45.35.98.69,1.96,1.04,2.94-279.42,97.45-488.04,277.11-625.84,539Z"/>
    <path class="cls-21" d="M518.15,447.36c4.06-3.19,8.18-6.3,12.36-9.35,174.41,239.07,409.57,357.31,705.49,354.72,0,1.03.01,2.07.02,3.1-295.93.52-535.22-115.63-717.86-348.47Z"/>
    <path class="cls-25" d="M368.95,930.67c-1.56-4.91-3.03-9.85-4.41-14.82,285.05-79.49,556.15-192.46,813.29-338.92.51.9,1.02,1.79,1.52,2.69-258.16,144.67-528.29,261.68-810.4,351.05Z"/>
    <path class="cls-6" d="M530.5,438.02c4.13-3.02,8.32-5.96,12.56-8.83,166.04,244.96,388.77,318.71,668.2,221.27.34.97.67,1.93,1,2.9-280.09,95.51-507.34,23.73-681.75-215.34Z"/>
    <path class="cls-25" d="M571.77,1181.96c-4.32-2.47-8.6-5.02-12.84-7.63,155.46-251.81,362.27-450.04,620.42-594.71.49.87.97,1.74,1.45,2.61-259.12,142.93-462.14,342.84-609.03,599.73Z"/>
    <path class="cls-15" d="M487.71,1119.69c-3.5-3.3-6.95-6.65-10.34-10.06,209.83-208.67,461.59-294.82,755.28-258.45-.12.95-.24,1.91-.36,2.86-293.44-38.28-541.63,50.27-744.57,265.65Z"/>
    <path class="cls-13" d="M364.54,915.85c-1.29-4.63-2.51-9.28-3.65-13.95,287.49-70.18,576.55-133.1,867.2-188.76.18.94.36,1.89.53,2.83-291,53.77-579.03,120.39-864.08,199.88Z"/>
    <path class="cls-13" d="M534.23,1157.91c-3.83-2.73-7.61-5.53-11.36-8.38,179.5-235.27,414.75-379.79,705.75-433.56.17.93.34,1.85.5,2.78-291.34,51.91-522.97,198.3-694.9,439.16Z"/>
    <path class="cls-10" d="M836.02,354.9c4.51.45,9.01.96,13.5,1.55-38.27,293.44,80.87,492.83,357.42,598.17-.32.85-.65,1.69-.97,2.54-275.9-107.03-399.21-307.78-369.94-602.25Z"/>
    <path class="cls-18" d="M647.44,376.97c4.27-1.47,8.57-2.88,12.88-4.22,87.86,282.58,279.15,410.52,573.87,383.8.08.9.16,1.8.24,2.7-294.88,24.91-490.54-102.51-586.99-382.28Z"/>
    <path class="cls-13" d="M558.93,1174.33c-3.38-2.09-6.73-4.22-10.05-6.39,162.16-247.54,388.91-397.27,680.25-449.19.14.78.28,1.56.41,2.35-291.61,50.35-515.15,201.43-670.61,453.23Z"/>
    <path class="cls-5" d="M356.08,713.48c.71-3.73,1.47-7.44,2.27-11.15,289.18,62.86,570.02,36.6,842.53-78.78.3.7.59,1.4.88,2.1-273.1,113.98-554.99,143.26-845.68,87.83Z"/>
    <path class="cls-23" d="M960.74,1207.24c-3.43,1.41-6.88,2.77-10.34,4.1-105.52-276.48-10.52-406.97,285-391.47-.04.74-.08,1.48-.12,2.22-295.44-16.97-386.95,111.41-274.54,385.16Z"/>
    <path class="cls-11" d="M477.37,1109.63c-2.41-2.43-4.8-4.88-7.15-7.36,214.6-203.76,445.61-237.13,723.61-116.77-.29.62-.58,1.24-.88,1.86-267.22-127.16-505.74-86.4-715.58,122.27Z"/>
    <path class="cls-15" d="M360.89,901.9c-.8-3.28-1.56-6.57-2.29-9.86,289.01-63.61,580.24-76.27,873.68-37.99-.09.67-.18,1.34-.27,2.01-293.26-39.62-583.64-24.34-871.12,45.85Z"/>
    <path class="cls-18" d="M364.77,676.57c.9-3.21,1.84-6.4,2.81-9.59,283.03,86.43,571.98,117.18,866.86,92.27.06.66.11,1.33.16,1.99-294.99,23.59-584.93-4.64-869.83-84.67Z"/>
    <path class="cls-18" d="M377.17,638.97c1.18-3.11,2.4-6.21,3.65-9.3,274.2,111.3,558.79,155.16,853.78,131.58.05.66.1,1.33.15,1.99-295.09,22.26-580.95-19.17-857.59-124.27Z"/>
    <path class="cls-25" d="M660.33,372.74c3.13-.97,6.26-1.91,9.41-2.81,81.59,284.46,251.95,355.22,511.07,212.3.32.57.63,1.15.94,1.72-259.75,141.78-433.56,71.38-521.42-211.21Z"/>
    <path class="cls-1" d="M358.6,892.03c-.68-3.09-1.33-6.2-1.94-9.3,290.31-57.41,577.56-44.86,861.75,37.64-.18.61-.35,1.22-.53,1.82-283.84-83.72-570.26-93.77-859.28-30.17Z"/>
    <path class="cls-23" d="M1009.53,409.62c2.69,1.51,5.36,3.05,8.02,4.62-150.29,254.92-77.71,390.87,217.73,407.85-.04.62-.07,1.23-.11,1.85-295.37-18.21-370.58-156.31-225.64-414.31Z"/>
    <path class="cls-15" d="M429.15,1052.15c-1.77-2.52-3.52-5.05-5.24-7.61,245.47-165.28,514.84-228.11,808.1-188.49-.08.61-.17,1.22-.25,1.83-293.1-40.84-560.64,23.91-802.62,194.26Z"/>
    <path class="cls-23" d="M522.87,1149.53c-2.44-1.86-4.87-3.76-7.27-5.67,184.35-231.49,424.2-338.14,719.57-319.93-.04.61-.08,1.23-.12,1.84-295.29-19.43-532.68,88.49-712.18,323.76Z"/>
    <path class="cls-17" d="M470.22,1102.27c-2.1-2.22-4.18-4.45-6.24-6.71,218.76-199.29,472.79-267.77,762.08-205.44-.13.6-.26,1.19-.39,1.79-289.03-63.53-540.84,6.59-755.45,210.36Z"/>
    <path class="cls-13" d="M463.98,1095.56c-2.02-2.22-4.02-4.45-5.99-6.71,222.75-194.82,479.94-317.4,771.55-367.75.1.59.2,1.18.3,1.77-291.82,49.17-547.1,173.4-765.87,372.69Z"/>
    <path class="cls-15" d="M694.16,1229.57c-2.9-.66-5.78-1.34-8.67-2.05,71.09-287.26,253.18-410.47,546.28-369.63-.08.59-.17,1.18-.25,1.76-292.93-42.02-472.05,81.29-537.36,369.92Z"/>
    <path class="cls-15" d="M979.62,394.27c2.69,1.25,5.37,2.53,8.03,3.84-130.35,265.67-49.06,419.52,243.87,461.53-.08.59-.17,1.17-.26,1.76-292.76-43.19-376.64-198.9-251.64-467.14Z"/>
    <path class="cls-13" d="M749.16,354.81c2.93-.28,5.85-.54,8.78-.77,22.78,295.05,180.08,417.99,471.9,368.82.1.58.19,1.16.29,1.74-292.01,48.01-452.33-75.26-480.97-369.8Z"/>
    <path class="cls-10" d="M358.36,702.33c.62-2.86,1.27-5.72,1.95-8.58,287.87,68.58,569.76,156.38,845.65,263.4-.21.55-.43,1.09-.64,1.64-275.47-108.12-557.79-193.61-846.97-256.47Z"/>
    <path class="cls-18" d="M356.66,882.73c-.57-2.86-1.1-5.72-1.61-8.59,291.38-51.68,584.62-88.65,879.71-110.9.04.58.09,1.16.13,1.74-295.18,21.09-587.92,60.35-878.22,117.75Z"/>
    <path class="cls-25" d="M557.95,419.52c2.47-1.53,4.96-3.05,7.46-4.53,151.14,254.42,356.58,310.74,616.34,168.97.28.51.56,1.02.83,1.53-260.31,140.76-468.52,85.43-624.63-165.97Z"/>
    <path class="cls-25" d="M423.91,1044.54c-1.59-2.36-3.15-4.73-4.7-7.12,248.6-160.53,503.06-311.18,763.37-451.93.27.5.54,1,.81,1.5-260.85,139.76-514.01,292.27-759.48,457.55Z"/>
    <path class="cls-15" d="M565.41,414.99c2.39-1.42,4.8-2.82,7.22-4.2,146.32,257.22,365.86,407.43,658.62,450.62-.08.55-.16,1.1-.25,1.65-292.59-44.29-514.46-193.65-665.6-448.07Z"/>
    <path class="cls-5" d="M849.52,356.45c2.76.36,5.52.75,8.27,1.16-43.78,292.67,70.88,382.02,343.98,268.04.21.51.43,1.03.64,1.54-273.52,112.95-391.15,22.71-352.89-270.74Z"/>
    <path class="cls-23" d="M386.36,976.63c-1.12-2.52-2.21-5.05-3.29-7.6,272.69-114.94,556.69-162.69,851.98-143.26-.04.55-.07,1.1-.11,1.65-295.22-20.53-578.07,29.2-848.58,149.21Z"/>
    <path class="cls-21" d="M457.99,1088.85c-1.81-2.07-3.6-4.16-5.38-6.26,226.34-190.64,487.47-286.22,783.4-286.75,0,.55,0,1.1,0,1.65-295.93-.58-555.27,96.54-778.02,291.36Z"/>
    <path class="cls-6" d="M452.61,1082.58c-1.76-2.08-3.49-4.18-5.21-6.3,229.81-186.44,484.76-327.42,764.85-422.93.18.52.35,1.03.52,1.55-280.44,94.48-533.83,237.04-760.17,427.68Z"/>
    <path class="cls-13" d="M419.22,1037.42c-1.46-2.26-2.9-4.54-4.32-6.83,251.48-155.98,523.23-257.97,815.24-305.98.09.53.17,1.06.26,1.6-292.18,46.94-562.57,150.68-811.18,311.21Z"/>
    <path class="cls-11" d="M669.73,369.93c2.51-.72,5.03-1.42,7.55-2.09,76.56,285.85,248.44,492.36,515.66,619.52-.22.47-.45.94-.68,1.41-266.77-128.1-440.94-334.38-522.54-618.84Z"/>
    <path class="cls-17" d="M405.84,1015.32c-1.28-2.27-2.55-4.55-3.79-6.84,260.05-141.24,534.59-180.09,823.62-116.57-.11.51-.22,1.02-.34,1.53-288.8-64.55-561.97-23.92-819.48,121.88Z"/>
    <path class="cls-15" d="M409.65,571.33c1.31-2.23,2.65-4.45,4-6.65,252.32,154.63,524.77,254.09,817.37,298.38-.08.51-.16,1.02-.23,1.53-292.44-45.32-566.15-143.07-821.13-293.26Z"/>
    <path class="cls-13" d="M572.64,410.79c2.24-1.27,4.49-2.53,6.75-3.76,141.82,259.73,358.82,366.12,651.01,319.18.08.51.16,1.02.24,1.53-292.34,45.93-511.68-59.72-658-316.94Z"/>
    <path class="cls-18" d="M668.34,1222.91c-2.32-.67-4.64-1.37-6.96-2.08,87.15-282.8,278.32-434.75,573.5-455.85.03.48.07.97.1,1.45-295.24,20.13-484.12,172.29-566.64,456.48Z"/>
    <path class="cls-25" d="M757.95,354.05c2.37-.18,4.74-.35,7.12-.49,18.04,295.38,157.48,373.19,418.33,233.43.22.42.45.84.67,1.26-261.3,138.92-403.34,60.85-426.12-234.2Z"/>
    <path class="cls-17" d="M355.05,874.14c-.41-2.31-.8-4.62-1.17-6.94,292.16-47.05,582.65-38.31,871.45,26.24-.1.46-.21.92-.31,1.37-288.6-65.46-578.59-72.35-869.97-20.67Z"/>
    <path class="cls-13" d="M677.29,367.84c2.25-.6,4.51-1.19,6.77-1.76,72.04,287.03,254.23,407.57,546.58,361.65.07.46.14.92.21,1.38-292.49,45.01-477.01-75.42-553.56-361.27Z"/>
    <path class="cls-23" d="M987.65,398.11c2.09,1.02,4.17,2.06,6.24,3.12-134.51,263.59-54.16,405.66,241.06,426.19-.03.46-.07.93-.1,1.39-295.15-21.46-377.55-165.03-247.2-430.7Z"/>
    <path class="cls-22" d="M899.62,1227.3c-2.17.54-4.34,1.07-6.52,1.57-67.32-288.17,41.76-471.21,327.25-549.12.12.43.23.86.35,1.29-285.72,77.05-392.75,259.13-321.08,546.25Z"/>
    <path class="cls-18" d="M724.94,357.84c2.19-.34,4.39-.66,6.59-.96,40.39,293.16,208.21,429.67,503.46,409.54.03.44.06.89.09,1.33-295.3,19.24-465.35-117.39-510.13-409.91Z"/>
    <path class="cls-22" d="M353.87,867.2c-.35-2.18-.69-4.37-1.01-6.56,292.83-42.68,582.11-102.54,867.84-179.59.12.43.23.85.34,1.28-285.95,76.19-575.01,137.81-867.17,184.87Z"/>
    <path class="cls-22" d="M447.4,1076.28c-1.36-1.68-2.71-3.37-4.05-5.07,232.51-183.06,491.74-312.69,777.7-388.88.11.42.22.84.33,1.25-286.17,75.36-544.17,206.25-773.98,392.7Z"/>
    <path class="cls-1" d="M723.88,1235.24c-2.1-.33-4.2-.67-6.29-1.03,49.69-291.73,216.45-395.73,500.29-312.01-.12.41-.24.82-.36,1.22-283.6-84.53-448.14,19.4-493.63,311.82Z"/>
    <path class="cls-25" d="M661.39,1220.83c-2.03-.62-4.05-1.26-6.06-1.92,91.2-281.53,267.44-491.75,528.74-630.66.2.37.4.75.6,1.12-261.69,138.17-436.12,348.65-523.27,631.46Z"/>
    <path class="cls-1" d="M893.1,1228.87c-2.06.48-4.13.95-6.2,1.4-63.19-289.1,47.01-391.39,330.61-306.85-.12.41-.24.81-.36,1.22-283.35-85.35-391.37,16.07-324.05,304.24Z"/>
    <path class="cls-25" d="M367.58,666.98c.62-2.02,1.25-4.03,1.89-6.04,281.76,90.45,553.49,66.6,815.19-71.57.2.37.39.75.59,1.12-262.09,137.42-534.64,162.92-817.67,76.49Z"/>
    <path class="cls-25" d="M380.82,629.66c.79-1.96,1.6-3.91,2.42-5.85,272.58,115.2,539.92,104.1,802-33.32.2.37.39.75.59,1.12-262.48,136.67-530.82,149.36-805.01,38.05Z"/>
    <path class="cls-21" d="M684.06,366.08c2.01-.5,4.02-.99,6.03-1.47,68.02,288.01,249.99,432.3,545.92,432.87,0,.41,0,.83,0,1.24-295.92-1.4-479.91-145.62-551.95-432.65Z"/>
    <path class="cls-22" d="M383.08,969.03c-.8-1.91-1.59-3.82-2.37-5.73,274.27-111.12,554.5-204.35,840.67-279.71.11.4.21.8.31,1.2-286.38,74.55-565.92,169.3-838.62,284.24Z"/>
    <path class="cls-25" d="M800.56,352.81c2.06.04,4.12.09,6.18.16-9.74,295.77,116.62,375.32,379.1,238.64.19.37.38.73.57,1.1-262.86,135.94-391.47,55.97-385.85-239.9Z"/>
    <path class="cls-22" d="M717.59,1234.21c-2.02-.34-4.03-.7-6.04-1.07,53.72-291.01,223.76-473.8,510.15-548.35.1.4.21.79.31,1.19-286.59,73.76-454.73,256.51-504.41,548.23Z"/>
    <path class="cls-23" d="M443.35,1071.21c-1.24-1.58-2.47-3.16-3.69-4.76,234.97-179.89,500.04-259.1,795.19-237.64-.03.4-.06.8-.09,1.2-295.09-22.26-558.89,58.14-791.4,241.2Z"/>
    <path class="cls-13" d="M806.74,352.97c1.96.06,3.91.14,5.87.23-13.66,295.61,125.76,420.92,418.24,375.91.06.39.12.77.18,1.16-292.6,44.23-434.03-81.54-424.29-377.3Z"/>
    <path class="cls-11" d="M812.61,353.2c1.91.09,3.81.19,5.72.3-17.47,295.41,107.18,507.17,373.95,635.27-.17.34-.33.69-.5,1.03-266.43-128.79-392.82-340.99-379.17-636.6Z"/>
    <path class="cls-17" d="M655.33,1218.91c-1.78-.58-3.55-1.16-5.32-1.76,94.74-280.35,286.41-387.8,575.01-322.34-.08.36-.17.73-.25,1.09-288.43-66.19-478.24,41.48-569.44,323Z"/>
    <path class="cls-22" d="M369.47,660.94c.56-1.75,1.14-3.51,1.72-5.25,280.62,93.96,564.22,104.05,850.81,30.29.09.36.18.71.27,1.07-286.77,73.05-571.04,64.35-852.8-26.11Z"/>
    <path class="cls-22" d="M383.25,623.82c.72-1.7,1.45-3.39,2.18-5.08,271.13,118.59,550.08,141.36,836.85,68.31.09.36.18.71.27,1.07-286.95,72.33-566.72,50.9-839.3-64.3Z"/>
    <text class="cls-67" transform="translate(1038.67 1260.1) rotate(60.39)"><tspan x="0" y="0">15-17 years</tspan></text>
    <text class="cls-54" transform="translate(942.03 1253.06) rotate(71.4)"><tspan x="0" y="0">18-20 years</tspan></text>
    <text class="cls-68" transform="translate(923 1258.75) rotate(73.69)"><tspan x="0" y="0">21-24 years</tspan></text>
    <text class="cls-46" transform="translate(897.03 1265.69) rotate(76.83)"><tspan x="0" y="0">25-29 years</tspan></text>
    <text class="cls-62" transform="translate(862.73 1274.46) rotate(79.96)"><tspan x="0" y="0">30-34 years</tspan></text>
    <text class="cls-55" transform="translate(843.56 1277.75) rotate(82.25)"><tspan x="0" y="0">35-39 years</tspan></text>
    <text class="cls-33" transform="translate(823.8 1279.79) rotate(84.55)"><tspan x="0" y="0">40-44 years</tspan></text>
    <text class="cls-57" transform="translate(804.25 1281.45) rotate(86.84)"><tspan x="0" y="0">45-49 years</tspan></text>
    <text class="cls-37" transform="translate(784.36 1281.89) rotate(89.13)"><tspan x="0" y="0">50-54 years</tspan></text>
    <text class="cls-38" transform="translate(766.3 1279.73) rotate(90.55)"><tspan x="0" y="0">55-59 years</tspan></text>
    <text class="cls-46" transform="translate(747.43 1277.61) rotate(92.84)"><tspan x="0" y="0">60-64 years</tspan></text>
    <text class="cls-59" transform="translate(698.89 1452.99) rotate(-81.77)"><tspan x="0" y="0">65 years and older</tspan></text>
    <text class="cls-41" transform="translate(644.62 1437.76) rotate(-76.68)"><tspan x="0" y="0">Special education</tspan></text>
    <text class="cls-36" transform="translate(624.37 1349.57) rotate(-72.57)"><tspan x="0" y="0">0-8 grade</tspan></text>
    <text class="cls-53" transform="translate(511.58 1364.59) rotate(-62.9)"><tspan x="0" y="0">9-</tspan><tspan class="cls-88" x="20.68" y="0">1</tspan><tspan class="cls-89" x="32.17" y="0">1 grade</tspan></text>
    <text class="cls-48" transform="translate(409.18 1316.12) rotate(-52.97)"><tspan x="0" y="0">12 grade (GED)</tspan></text>
    <text class="cls-30" transform="translate(271.77 1295.06) rotate(-43.31)"><tspan x="0" y="0">More than 12 grade</tspan></text>
    <text class="cls-42" transform="translate(305.82 1125.23) rotate(-33.48)"><tspan x="0" y="0">Full-time</tspan></text>
    <text class="cls-51" transform="translate(287.99 1088.98) rotate(-29.01)"><tspan x="0" y="0">Part-time</tspan></text>
    <text class="cls-48" transform="translate(35.99 1182.08) rotate(-26.22)"><tspan x="0" y="0">Full-time/part-time undi</tspan><tspan class="cls-82" x="240.62" y="0">f</tspan><tspan x="248.44" y="0">ferentiated</tspan></text>
    <text class="cls-43" transform="translate(225.17 1048) rotate(-22.99)"><tspan x="0" y="0">Unemployed</tspan></text>
    <text class="cls-65" transform="translate(111.74 973.79) rotate(-14.03)"><tspan x="0" y="0">Not in labor force</tspan></text>
    <text class="cls-69" transform="translate(204.39 863.02) rotate(-6)"><tspan x="0" y="0">Mexican</tspan></text>
    <text class="cls-52" transform="translate(143.2 786.99) rotate(1.25)"><tspan x="0" y="0">Puerto Rican</tspan></text>
    <text class="cls-44" transform="translate(2.04 687.91) rotate(8.5)"><tspan x="0" y="0">Other Hispanic / Latino origin</tspan></text>
    <text class="cls-34" transform="translate(1.92 635.75) rotate(12.1)"><tspan x="0" y="0">Not of Hispanic / Latino origin</tspan></text>
    <text class="cls-57" transform="translate(259.72 548.29) rotate(25.92)"><tspan x="0" y="0">Homeless</tspan></text>
    <text class="cls-45" transform="translate(206.72 492.43) rotate(28.21)"><tspan x="0" y="0">Private residence</tspan></text>
    <text class="cls-63" transform="translate(235.46 470.13) rotate(31)"><tspan x="0" y="0">Other residence</tspan></text>
    <text class="cls-39" transform="translate(273.09 295.89) rotate(44.83)"><tspan x="0" y="0">Never married</tspan></text>
    <text class="cls-32" transform="translate(464.93 252.98) rotate(59.76)"><tspan x="0" y="0">Now married</tspan></text>
    <text class="cls-35" transform="translate(452.54 135.93) rotate(63.66)"><tspan x="0" y="0">Separated (marital status)</tspan></text>
    <text class="cls-56" transform="translate(548.95 119.86) rotate(71.33)"><tspan x="0" y="0">Divorced, widowed</tspan></text>
    <text class="cls-66" transform="translate(627.27 3.94) rotate(79)"><tspan x="0" y="0">American Indian/Alaska Native</tspan></text>
    <text class="cls-40" transform="translate(705.1 253.02) rotate(81.73)"><tspan x="0" y="0">Asian</tspan></text>
    <text class="cls-31" transform="translate(724.87 38.93) rotate(85.48)"><tspan x="0" y="0">Black or</tspan><tspan class="cls-90" x="84.79" y="0"> </tspan><tspan x="89.62" y="0">African</tspan><tspan class="cls-90" x="165.43" y="0"> </tspan><tspan class="cls-93" x="170.27" y="0">American</tspan></text>
    <text class="cls-50" transform="translate(769.02 51.24) rotate(88.8)"><tspan x="0" y="0">Native Hawaiian or Other</tspan></text>
    <text class="cls-47" transform="translate(807.56 246.35) rotate(92.24)"><tspan x="0" y="0">White</tspan></text>
    <text class="cls-49" transform="translate(883.22 24.24) rotate(97.09)"><tspan x="0" y="0">Other race/two or more races</tspan></text>
    <text class="cls-70" transform="translate(931.25 305.9) rotate(-70.96)"><tspan x="0" y="0">Other jurisdictions</tspan></text>
    <text class="cls-46" transform="translate(980.86 344.93) rotate(-65.07)"><tspan x="0" y="0">Northeast region</tspan></text>
    <text class="cls-58" transform="translate(1013.37 361.5) rotate(-63.99)"><tspan x="0" y="0">Midwest region</tspan></text>
    <text class="cls-60" transform="translate(1038.6 377.36) rotate(-57.84)"><tspan x="0" y="0">South region</tspan></text>
    <text class="cls-33" transform="translate(1061.71 390.68) rotate(-57.19)"><tspan class="cls-84" x="0" y="0">W</tspan><tspan class="cls-92" x="21.44" y="0">est region</tspan></text>
    <text class="cls-56" transform="translate(265.69 639.94) rotate(17.1)"><tspan x="0" y="0">Male</tspan></text>
    <text class="cls-64" transform="translate(265.59 591.71) rotate(22.21)"><tspan x="0" y="0">Female</tspan></text>
    <text class="cls-80" transform="translate(1229.69 557.72) rotate(-29.33)"><tspan x="0" y="0">ADHD</tspan></text>
    <text class="cls-76" transform="translate(1251.96 602.21) rotate(-23.75)"><tspan x="0" y="0">Alcohol</tspan></text>
    <text class="cls-75" transform="translate(1265.94 638.01) rotate(-19.38)"><tspan x="0" y="0">Anxiety</tspan></text>
    <text class="cls-61" transform="translate(1276.9 673.15) rotate(-15.24)"><tspan x="0" y="0">Bipolar</tspan></text>
    <text class="cls-29" transform="translate(1286.9 716.86) rotate(-10.23)"><tspan x="0" y="0">Conduct</tspan></text>
    <text class="cls-79" transform="translate(1293.02 762.6) rotate(-5.02)"><tspan x="0" y="0">Delirium</tspan></text>
    <text class="cls-73" transform="translate(1294.95 802) rotate(-.58)"><tspan x="0" y="0">Depressive</tspan></text>
    <text class="cls-72" transform="translate(1294.05 837.68) rotate(3.44)"><tspan x="0" y="0">ODD</tspan></text>
    <text class="cls-71" transform="translate(1290.47 875.46) rotate(7.71)"><tspan x="0" y="0">Other</tspan></text>
    <text class="cls-77" transform="translate(1283.72 912.94) rotate(12.01)"><tspan x="0" y="0">PDD</tspan></text>
    <text class="cls-81" transform="translate(1275.15 947.28) rotate(15.99)"><tspan x="0" y="0">Personality</tspan></text>
    <text class="cls-74" transform="translate(1263.44 983.18) rotate(20.24)"><tspan x="0" y="0">Schizophrenia</tspan></text>
    <text class="cls-78" transform="translate(1248.02 1020.2) rotate(24.76)"><tspan class="cls-91" x="0" y="0">T</tspan><tspan x="14.29" y="0">rauma</tspan></text>
    <path class="cls-19" d="M1173.17,564.68c5.34,8.79,10.38,17.76,15.11,26.89l-6.34,3.28c-4.65-8.99-9.61-17.82-14.87-26.46l6.1-3.71Z"/>
    <path class="cls-24" d="M1196.16,607.6c2.88,6.16,5.62,12.38,8.21,18.67l-6.6,2.72c-2.55-6.18-5.25-12.31-8.08-18.37l6.47-3.02Z"/>
    <path class="cls-4" d="M1210.86,642.91c1.37,3.73,2.68,7.47,3.95,11.23l-6.76,2.28c-1.25-3.7-2.54-7.39-3.89-11.05l6.7-2.46Z"/>
    <path class="cls-12" d="M1220.18,671.18c1.59,5.43,3.08,10.89,4.46,16.38l-6.92,1.74c-1.36-5.4-2.83-10.78-4.39-16.12l6.85-2.01Z"/>
    <path class="cls-2" d="M1228.66,704.97c1.74,8.29,3.25,16.63,4.51,25.01l-7.06,1.07c-1.25-8.24-2.73-16.45-4.44-24.61l6.99-1.47Z"/>
    <path class="cls-3" d="M1235.49,747.69c.73,6.65,1.32,13.32,1.76,20l-7.12.46c-.43-6.57-1-13.13-1.73-19.68l7.09-.78Z"/>
    <path class="cls-26" d="M1237.74,816.71c-.2,4.54-.48,9.08-.82,13.62l-7.12-.54c.34-4.46.61-8.93.81-13.4l7.13.32Z"/>
    <path class="cls-16" d="M1235.22,848.11c-.66,5.68-1.43,11.35-2.3,17.01l-7.05-1.09c.86-5.56,1.62-11.14,2.26-16.74l7.09.82Z"/>
    <path class="cls-20" d="M1229.83,882.71c-.91,4.65-1.9,9.29-2.96,13.91l-6.96-1.6c1.04-4.55,2.01-9.11,2.91-13.69l7,1.37Z"/>
    <path class="cls-7" d="M1222.53,913.95c-1.05,3.88-2.16,7.74-3.32,11.58l-6.83-2.06c1.14-3.78,2.23-7.58,3.27-11.4l6.89,1.87Z"/>
    <path class="cls-8" d="M1213.72,942.53c-2.01,5.83-4.15,11.62-6.41,17.37l-6.64-2.61c2.22-5.65,4.32-11.35,6.3-17.09l6.75,2.33Z"/>
    <path class="cls-28" d="M1200.46,976.39c-2.17,4.94-4.43,9.84-6.78,14.7l-6.43-3.11c2.31-4.78,4.53-9.6,6.67-14.46l6.53,2.87Z"/>
    <path class="cls-9" d="M1238.25,785.41c.11,4.44.16,8.88.14,13.32l-7.14-.03c.02-4.37-.02-8.74-.13-13.1l7.14-.18Z"/>
    <circle class="cls-14" cx="1009.69" cy="1179.07" r="67.79"/>
    <circle class="cls-14" cx="893.1" cy="1228.11" r="6.64"/>
    <circle class="cls-14" cx="658.05" cy="1219.92" r="7.29"/>
    <circle class="cls-14" cx="689.9" cy="1228.61" r="4.41"/>
    <circle class="cls-14" cx="658.94" cy="1219.92" r="9.68"/>
    <circle class="cls-14" cx="403.88" cy="1011.96" r="3.94"/>
    <circle class="cls-14" cx="383.65" cy="969.95" r="7.29"/>
    <circle class="cls-14" cx="357.94" cy="703.46" r="10.1"/>
    <circle class="cls-14" cx="368.27" cy="666.1" r="10.73"/>
    <circle class="cls-14" cx="381.58" cy="629.02" r="10.84"/>
    <circle class="cls-14" cx="728.22" cy="357.27" r="3.29"/>
    <circle class="cls-14" cx="757.1" cy="353.98" r="7.94"/>
    <circle class="cls-14" cx="809.35" cy="353.2" r="8.97"/>
    <circle class="cls-14" cx="846.75" cy="356.51" r="11.08"/>
    <circle class="cls-14" cx="986.76" cy="397.88" r="7.94"/>
    <circle class="cls-14" cx="1013.56" cy="411.89" r="4.66"/>
    <circle class="cls-14" cx="524.52" cy="1150.98" r="11.65"/>
    <circle class="cls-14" cx="478.07" cy="484.62" r="85.05"/>
    <circle class="cls-14" cx="650.5" cy="375.51" r="41.2"/>
    <circle class="cls-14" cx="349.94" cy="787.03" r="38.3"/>
    <circle class="cls-14" cx="363.11" cy="904.05" r="44.29"/>
    <circle class="cls-14" cx="469.42" cy="1101.06" r="45.51"/>
    <circle class="cls-14" cx="589.75" cy="1191.62" r="47.56"/>
    <circle class="cls-14" cx="728.6" cy="1235.81" r="17.46"/>
    <circle class="cls-14" cx="911.42" cy="368.82" r="37.27"/>
    <circle class="cls-14" cx="567.64" cy="413.93" r="12.22"/>
    <circle class="cls-14" cx="422" cy="1041.59" r="12.85"/>
    <circle class="cls-27" cx="932.11" cy="1216.5" r="4.25"/>
    <circle class="cls-27" cx="915.21" cy="1221.62" r="4.25"/>
    <circle class="cls-27" cx="868.03" cy="1232.9" r="4.25"/>
    <circle class="cls-27" cx="850.52" cy="1235.59" r="4.25"/>
    <circle class="cls-27" cx="832.92" cy="1237.63" r="4.25"/>
    <circle class="cls-27" cx="815.25" cy="1239.41" r="4.25"/>
    <circle class="cls-27" cx="797.6" cy="1239.91" r="4.25"/>
    <circle class="cls-27" cx="779.91" cy="1239.41" r="4.25"/>
    <circle class="cls-27" cx="762.12" cy="1238.22" r="4.25"/>
    <circle class="cls-27" cx="1009.69" cy="1179.07" r="4.25"/>
    <circle class="cls-27" cx="893.1" cy="1228.11" r="4.25"/>
    <circle class="cls-27" cx="728.6" cy="1235.81" r="4.25"/>
    <circle class="cls-27" cx="689.9" cy="1228.61" r="4.25"/>
    <circle class="cls-86" cx="368.27" cy="666.1" r="4.25"/>
    <circle class="cls-86" cx="381.58" cy="629.02" r="4.25"/>
    <polygon class="cls-27" points="352.87 782.4 347.53 782.4 344.86 787.03 347.53 791.65 352.87 791.65 355.54 787.03 352.87 782.4"/>
    <polygon class="cls-27" points="352.87 838.28 347.53 838.28 344.86 842.91 347.53 847.53 352.87 847.53 355.54 842.91 352.87 838.28"/>
    <polygon class="cls-27" points="355.31 726.46 349.97 726.46 347.31 731.09 349.97 735.71 355.31 735.71 357.98 731.09 355.31 726.46"/>
    <polygon class="cls-27" points="360.6 699.19 355.27 699.19 352.6 703.81 355.27 708.43 360.6 708.43 363.27 703.81 360.6 699.19"/>
    <polygon class="cls-27" points="1216.59 605.34 1211.25 605.34 1208.58 609.96 1211.25 614.58 1216.59 614.58 1219.26 609.96 1216.59 605.34"/>
    <circle class="cls-27" cx="1228.39" cy="642.91" r="4.25"/>
    <circle class="cls-27" cx="1248.9" cy="713.88" r="4.25"/>
    <polygon class="cls-27" points="1231.29 954.17 1225.96 954.17 1223.29 958.8 1225.96 963.42 1231.29 963.42 1233.96 958.8 1231.29 954.17"/>
    <polygon class="cls-27" points="663.95 1223.41 658.94 1214.12 653.94 1223.41 663.95 1223.41"/>
    <polygon class="cls-27" points="594.75 1196.26 589.75 1186.98 584.74 1196.26 594.75 1196.26"/>
    <polygon class="cls-27" points="529.53 1155.62 524.52 1146.34 519.52 1155.62 529.53 1155.62"/>
    <polygon class="cls-27" points="474.02 1105.71 469.02 1096.43 464.01 1105.71 474.02 1105.71"/>
    <rect class="cls-27" x="418.14" y="1037.73" width="7.72" height="7.72"/>
    <rect class="cls-27" x="389.49" y="988.45" width="7.72" height="7.72"/>
    <rect class="cls-27" x="379.79" y="966.09" width="7.72" height="7.72"/>
    <rect class="cls-27" x="400.02" y="1008.1" width="7.72" height="7.72"/>
    <rect class="cls-27" x="359.25" y="900.19" width="7.72" height="7.72"/>
    <polygon class="cls-86" points="397.42 606.56 392.42 597.28 387.41 606.56 397.42 606.56"/>
    <polygon class="cls-86" points="406.38 588.12 401.37 578.83 396.37 588.12 406.38 588.12"/>
    <polygon class="cls-86" points="416.47 571.19 411.47 561.91 406.46 571.19 416.47 571.19"/>
    <rect class="cls-86" x="474.61" y="481.15" width="7.72" height="7.72"/>
    <rect class="cls-86" x="563.78" y="410.07" width="7.72" height="7.72"/>
    <rect class="cls-86" x="590.35" y="395.71" width="7.72" height="7.72"/>
    <rect class="cls-86" x="646.64" y="371.65" width="7.72" height="7.72"/>
    <polygon class="cls-86" points="708.97 357.3 703.64 357.3 700.97 361.92 703.64 366.54 708.97 366.54 711.64 361.92 708.97 357.3"/>
    <polygon class="cls-86" points="730.89 352.65 725.55 352.65 722.88 357.27 725.55 361.89 730.89 361.89 733.55 357.27 730.89 352.65"/>
    <polygon class="cls-86" points="759.77 349.36 754.43 349.36 751.76 353.98 754.43 358.6 759.77 358.6 762.44 353.98 759.77 349.36"/>
    <polygon class="cls-86" points="784.25 349.36 778.92 349.36 776.25 353.98 778.92 358.6 784.25 358.6 786.92 353.98 784.25 349.36"/>
    <polygon class="cls-86" points="812.02 348.58 806.68 348.58 804.02 353.2 806.68 357.82 812.02 357.82 814.69 353.2 812.02 348.58"/>
    <polygon class="cls-86" points="849.41 351.88 844.08 351.88 841.41 356.51 844.08 361.13 849.41 361.13 852.08 356.51 849.41 351.88"/>
    <polygon class="cls-27" points="1013.56 404.67 1015.14 409.54 1020.26 409.54 1016.12 412.55 1017.7 417.42 1013.56 414.41 1009.41 417.42 1011 412.55 1006.85 409.54 1011.97 409.54 1013.56 404.67"/>
    <polygon class="cls-27" points="986.76 390.56 988.34 395.44 993.46 395.44 989.32 398.45 990.9 403.32 986.76 400.31 982.61 403.32 984.19 398.45 980.05 395.44 985.17 395.44 986.76 390.56"/>
    <polygon class="cls-27" points="961.74 380.54 963.32 385.42 968.45 385.42 964.3 388.43 965.88 393.3 961.74 390.29 957.59 393.3 959.18 388.43 955.03 385.42 960.16 385.42 961.74 380.54"/>
    <polygon class="cls-27" points="1030.9 417.15 1032.48 422.02 1037.6 422.02 1033.46 425.03 1035.04 429.91 1030.9 426.9 1026.75 429.91 1028.33 425.03 1024.19 422.02 1029.31 422.02 1030.9 417.15"/>
    <polygon class="cls-27" points="911.42 361.51 913 366.38 918.13 366.38 913.98 369.39 915.57 374.27 911.42 371.25 907.28 374.27 908.86 369.39 904.71 366.38 909.84 366.38 911.42 361.51"/>
    <rect class="cls-86" x="1191.62" y="565.21" width="7.72" height="7.72"/>
    <polygon class="cls-27" points="1213.2 565.78 1208.19 556.5 1203.19 565.78 1213.2 565.78"/>
    <polygon class="cls-27" points="1226.66 598.96 1228.25 603.83 1233.37 603.83 1229.22 606.84 1230.81 611.72 1226.66 608.71 1222.52 611.72 1224.1 606.84 1219.96 603.83 1225.08 603.83 1226.66 598.96"/>
    <polygon class="cls-27" points="1247.59 641.57 1242.58 632.28 1237.58 641.57 1247.59 641.57"/>
    <rect class="cls-86" x="1244.07" y="669.41" width="7.72" height="7.72"/>
    <rect class="cls-86" x="1256.72" y="707.91" width="7.72" height="7.72"/>
    <circle class="cls-27" cx="1259.37" cy="791.91" r="4.25"/>
    <polygon class="cls-27" points="1276.07 796.55 1271.07 787.27 1266.07 796.55 1276.07 796.55"/>
    <circle class="cls-27" cx="1271.07" cy="826.34" r="4.25"/>
    <rect class="cls-27" x="1255.51" y="822.16" width="7.72" height="7.72"/>
    <circle class="cls-27" cx="1248.04" cy="893.05" r="4.25"/>
    <polygon class="cls-27" points="1263.89 899.45 1258.88 890.17 1253.88 899.45 1263.89 899.45"/>
    <rect class="cls-86" x="1241.96" y="923.8" width="7.72" height="7.72"/>
    <circle class="cls-27" cx="1215.51" cy="992.98" r="4.25"/>
    <rect class="cls-86" x="1221.8" y="993.61" width="7.72" height="7.72"/>
    <polygon class="cls-27" points="1240.11 955.99 1241.69 960.86 1246.81 960.86 1242.67 963.88 1244.25 968.75 1240.11 965.74 1235.96 968.75 1237.54 963.88 1233.4 960.86 1238.52 960.86 1240.11 955.99"/>
    <circle class="cls-27" cx="1257.58" cy="756.35" r="4.25"/>
    <rect class="cls-86" x="1265.2" y="751.49" width="7.72" height="7.72"/>
    <rect class="cls-86" x="1186.48" y="558.86" width="30.56" height="13.84" rx="3.64" ry="3.64" transform="translate(-123.1 661.09) rotate(-29.33)"/>
    <rect class="cls-86" x="1206.1" y="600.68" width="30.56" height="13.84" rx="3.64" ry="3.64" transform="translate(-141.27 543.27) rotate(-23.75)"/>
    <rect class="cls-86" x="1220.73" y="633.94" width="30.56" height="13.84" rx="3.64" ry="3.64" transform="translate(-142.63 446.52) rotate(-19.38)"/>
    <rect class="cls-86" x="1232.3" y="666.35" width="30.56" height="13.84" rx="3.64" ry="3.64" transform="translate(-133.09 351.55) rotate(-15.24)"/>
    <rect class="cls-86" x="1240.34" y="705.75" width="30.56" height="13.84" rx="3.64" ry="3.64" transform="translate(-106.58 234.23) rotate(-10.23)"/>
    <rect class="cls-86" x="1247.95" y="748.94" width="30.56" height="13.84" rx="3.64" ry="3.64" transform="translate(-61.25 113.35) rotate(-5.02)"/>
    <rect class="cls-86" x="1250.27" y="784.99" width="30.56" height="13.84" rx="3.64" ry="3.64"/>
    <rect class="cls-86" x="1249.42" y="819.42" width="30.56" height="13.84" rx="3.64" ry="3.64" transform="translate(51.85 -74.38) rotate(3.44)"/>
    <g>
      <polygon class="cls-27" points="1272.15 865.14 1267.15 855.86 1262.14 865.14 1272.15 865.14"/>
      <rect class="cls-86" x="1251.16" y="855.89" width="7.72" height="7.72"/>
      <rect class="cls-86" x="1245.29" y="853.58" width="30.56" height="13.84" rx="3.64" ry="3.64" transform="translate(126.79 -161.28) rotate(7.71)"/>
    </g>
    <rect class="cls-86" x="1238.32" y="887.28" width="30.56" height="13.84" rx="3.64" ry="3.64" transform="translate(213.55 -241.32) rotate(12.01)"/>
    <rect class="cls-86" x="1231.15" y="920.91" width="30.56" height="13.84" rx="3.64" ry="3.64" transform="translate(303.8 -307.45) rotate(15.99)"/>
    <rect class="cls-86" x="1219.7" y="953.95" width="30.56" height="13.84" rx="3.64" ry="3.64" transform="translate(408.71 -367.94) rotate(20.24)"/>
    <rect class="cls-86" x="1205.42" y="988.27" width="30.56" height="13.84" rx="3.64" ry="3.64" transform="translate(529.01 -419.76) rotate(24.76)"/>
  </g>
  <circle class="cls-85" cx="156.31" cy="1593.84" r="65.39"/>
  <g>
    <g>
      <circle class="cls-27" cx="670.54" cy="1555.03" r="8.38"/>
      <polygon class="cls-27" points="680.4 1602.44 670.54 1584.13 660.67 1602.44 680.4 1602.44"/>
      <rect class="cls-27" x="662.93" y="1623.17" width="15.22" height="15.22"/>
      <text class="cls-83" transform="translate(696.37 1562.09)"><tspan x="0" y="0">Age</tspan></text>
      <text class="cls-83" transform="translate(696.37 1600.91)"><tspan x="0" y="0">Education</tspan></text>
      <text class="cls-83" transform="translate(696.37 1639.72)"><tspan x="0" y="0">Employment</tspan></text>
    </g>
    <g>
      <polygon class="cls-27" points="911.02 1581.63 914.14 1591.23 924.24 1591.23 916.07 1597.17 919.19 1606.78 911.02 1600.84 902.85 1606.78 905.97 1597.17 897.79 1591.23 907.9 1591.23 911.02 1581.63"/>
      <polygon class="cls-27" points="916.28 1542.67 905.76 1542.67 900.49 1551.79 905.76 1560.9 916.28 1560.9 921.54 1551.79 916.28 1542.67"/>
      <circle class="cls-87" cx="911.02" cy="1635.89" r="8.38"/>
      <text class="cls-83" transform="translate(936.85 1562.09)"><tspan x="0" y="0">Ethnicity</tspan></text>
      <text class="cls-83" transform="translate(936.85 1600.91)"><tspan x="0" y="0">Census Region</tspan></text>
      <text class="cls-83" transform="translate(936.85 1639.72)"><tspan x="0" y="0">Gender</tspan></text>
    </g>
    <g>
      <polygon class="cls-87" points="1169.3 1566.87 1159.43 1548.56 1149.56 1566.87 1169.3 1566.87"/>
      <rect class="cls-87" x="1151.82" y="1587.59" width="15.22" height="15.22"/>
      <polygon class="cls-87" points="1164.69 1623.54 1154.17 1623.54 1148.91 1632.65 1154.17 1641.77 1164.69 1641.77 1169.95 1632.65 1164.69 1623.54"/>
      <text class="cls-83" transform="translate(1185.27 1562.09)"><tspan x="0" y="0">Residential Status</tspan></text>
      <text class="cls-83" transform="translate(1185.27 1600.91)"><tspan x="0" y="0">Marital Status</tspan></text>
      <text class="cls-83" transform="translate(1185.27 1639.72)"><tspan x="0" y="0">Race</tspan></text>
    </g>
  </g>
  <text class="cls-83" transform="translate(265.16 1583.62)"><tspan x="0" y="0">Bigger size ↔ Higher </tspan><tspan x="0" y="34.02">cosine similarity</tspan></text>
</svg>