<?xml version="1.0" encoding="utf-8"?>
<!-- Generator: Adobe Illustrator 28.3.0, SVG Export Plug-In . SVG Version: 6.00 Build 0)  -->
<svg version="1.1" id="Layer_1" xmlns="http://www.w3.org/2000/svg" xmlns:xlink="http://www.w3.org/1999/xlink" x="0px" y="0px"
	 viewBox="0 0 2500 2500" style="enable-background:new 0 0 2500 2500;" xml:space="preserve">
<style type="text/css">
	.st0{fill-rule:evenodd;clip-rule:evenodd;}
	.st1{fill-rule:evenodd;clip-rule:evenodd;fill:#00A1C6;}
	.st2{fill-rule:evenodd;clip-rule:evenodd;fill:#F6D43C;}
</style>
<g>
	<path class="st0" d="M496.6,1312.3c3.8,21.1,8.1,49.2,11.5,59.2c17.7,8.1,38,14.3,58.8,14.3c49.5,0,86.8-33.5,86.8-78.8
		c0-86-117.5-61.8-117.5-131.4c0-23,14.6-43.4,42.2-43.4c35.7,0,46.9,27.3,53.4,50.3l9.6-1.2l-6.9-52.6c-11.9-2.3-22.7-9.6-47.2-9.6
		c-51.5,0-80.7,33.4-80.7,72.2c0,78,116,60.3,116,131c0,30.3-18.8,50.3-48.4,50.3c-41.5,0-61.5-43.4-67.6-61.8L496.6,1312.3
		L496.6,1312.3z M738.6,1203.9c-20,6.9-39.2,11.5-57.2,15.7v6.9c25.7,3.1,26.5,3.5,26.5,26.9v90.7c0,21.9-2.3,23.8-28,26.1v9.2h86.8
		v-9.2c-26.1-2.3-28-4.2-28-26.1v-98.7c12.7-10.4,28-18.4,43.8-18.4c26.9,0,35,18.1,35,40.7v76.5c0,21.9-2.3,23.8-28,26.1v9.2h86.8
		v-9.2c-26.1-2.3-28-4.2-28-26.1v-87.6c0-3.5-0.4-8.1-0.8-10.8c14.6-12.7,29.2-18.8,43-18.8c29.2,0,36.5,19.6,36.5,42.3v74.9
		c0,21.9-2.3,23.8-28,26.1v9.2h86.8v-9.2c-26.1-2.3-28-4.2-28-26.1v-87.6c0-30.7-17.7-51.9-49.5-51.9c-24.2,0-47.6,19.2-63.4,30.3
		c-7.3-19.2-25-30.3-44.6-30.3c-25.7,0-47.6,20-61.5,28.4L738.6,1203.9L738.6,1203.9z M1061.2,1203.9c-20,6.9-39.2,11.5-57.2,15.7
		v6.9c25.7,3.1,26.5,3.5,26.5,26.9v90.7c0,21.9-2.3,23.8-28,26.1v9.2h86.8v-9.2c-26.1-2.3-28-4.2-28-26.1L1061.2,1203.9
		L1061.2,1203.9z M1045.9,1112.1c-11.1,0-20.4,9.6-20.4,21.5s9.2,21.1,20.4,21.1c11.5,0,20.3-9.2,20.3-21.1
		S1057.4,1112.1,1045.9,1112.1z M1111.9,1209.7l-11.5,10.8l1.5,4.2h28.8v112.2c0,31.5,13.4,47.7,38.8,47.7c2.7,0,7.7-1.1,11.5-3.1
		l32.3-16.2l-3.8-8.8c-7.7,4.6-16.1,7.7-23.4,7.7c-10.4,0-24.6-5.7-24.6-36.1v-103.3h42.3c3.1-2.7,5-6.5,5-9.6
		c-0.1-1.9-0.7-3.8-1.9-5.4h-45.3V1159h-5.4l-25.4,26.1v24.6L1111.9,1209.7L1111.9,1209.7z M1280.9,1101.4
		c-20,6.9-39.2,11.5-57.2,15.7v6.9c25.7,3.1,26.5,3.5,26.5,26.9v193.2c0,21.9-2.3,23.8-28,26.1v9.2h86.8v-9.2
		c-26.1-2.3-28-4.2-28-26.1v-99.9c10.3-11.5,24.9-18,40.3-18.1c28.8,0,38.8,18.4,38.8,46.9v71.1c0,21.9-2.3,23.8-28,26.1v9.2h86.8
		v-9.2c-26.1-2.3-28-4.2-28-26.1v-83c0-32.7-17.3-56.5-54.2-56.5c-20.8,0-42.3,13.4-55.7,27.7L1280.9,1101.4L1280.9,1101.4
		L1280.9,1101.4z M1438.8,1327.2c0,15,2.3,36.9,4.6,42.6c7.7,6.1,25.7,14.6,45.7,14.6c29.6,0,63-17.7,63-53.8
		c0-26.5-18.8-41.5-47.6-53.4c-16.9-6.9-33.8-18-33.8-34.2c0-12.7,8.1-26.5,25.7-26.5c15,0,27.3,8.8,39.2,35l9.6-2.3
		c-0.8-6.9-5-28.8-8.8-37.7c-10.4-4.6-21.7-7-33-6.9c-33.8,0-58.4,23.4-58.4,51.5c0,25.7,21.9,39.2,47.2,50.7
		c21.5,9.6,30.3,20.8,30.3,36.5c0,19.2-13.4,29.2-27.7,29.2c-23,0-40.7-25-46.9-47.6L1438.8,1327.2L1438.8,1327.2z M1669.3,1372.6
		c-33.8,0-55.3-38-55.3-87.6c0-41.5,19.6-68.4,46.1-68.4c35.7,0,54.5,40.3,54.5,83.7C1714.6,1353.4,1693.9,1372.6,1669.3,1372.6z
		 M1665,1384.5c39.6,0,85.3-31.5,85.3-92.6c0-49.2-35.7-87.2-85.7-87.2c-35.7,0-86.4,28.8-86.4,94.5
		C1578.2,1339.9,1609.7,1384.5,1665,1384.5L1665,1384.5z M1836.7,1203.6c-20,6.9-39.2,11.5-57.2,15.7v6.9
		c25.7,3.1,26.5,3.5,26.5,26.9v91c0,21.9-2.3,23.8-28,26.1v9.2h86.8v-9.2c-26.1-2.3-28-4.2-28-26.1v-98.7
		c11.9-10.4,26.9-18.4,42.3-18.4c29.2,0,36.5,19.6,36.5,42.3v74.9c0,21.9-2.3,23.8-28,26.1v9.2h86.8v-9.2c-26.1-2.3-28-4.2-28-26.1
		V1257c0-30.7-17.7-52.2-49.9-52.2c-18.8,0-41.5,15-59.6,28.8L1836.7,1203.6L1836.7,1203.6L1836.7,1203.6z M2050.3,1203.9
		c-20,6.9-39.2,11.5-57.2,15.7v6.9c25.7,3.1,26.5,3.5,26.5,26.9v90.7c0,21.9-2.3,23.8-28,26.1v9.2h86.8v-9.2
		c-26.1-2.3-28-4.2-28-26.1L2050.3,1203.9L2050.3,1203.9z M2035,1112.1c-11.1,0-20.4,9.6-20.4,21.5s9.2,21.1,20.4,21.1
		c11.5,0,20.3-9.2,20.3-21.1S2046.5,1112.1,2035,1112.1z M2252.4,1365.3l-3.5-8.8c-7.3,3.5-13.8,5-16.9,5c-5.7,0-10.7-6.5-10.7-21.1
		v-87.9c0-26.9-13.4-47.6-46.1-47.6c-27.7,5.4-51.1,20-60.3,27.3c-8.4,6.5-13.4,11.1-13.4,16.9c0,6.9,10.7,13.1,16.9,13.1
		c4.4,0,8.2-3,9.2-7.3c4.6-16.9,12.3-33,31.5-33c20.8,0,32.3,13.1,32.3,37.3v13.4c-11.9,8.1-43.8,19.6-63,27.3
		c-20.3,8.4-30,21.5-30,39.6c0,21.5,18.4,45.4,46.9,45.4c8.5,0,29.6-15,46.1-25.8c2.3,10,8.1,23.1,21.5,25.8L2252.4,1365.3z
		 M2191.3,1347.6c-10.8,8.1-25,15-34.2,15c-11.9,0-25.7-9.6-25.7-30.3c0-16.1,8.8-23.4,20.4-29.6c12.3-6.5,25.7-11.9,39.6-17.7
		L2191.3,1347.6L2191.3,1347.6z M2325.7,1203.6c-20,6.9-39.2,11.5-57.2,15.7v6.9c25.7,3.1,26.5,3.5,26.5,26.9v91
		c0,21.9-2.3,23.8-28,26.1v9.2h86.8v-9.2c-26.1-2.3-28-4.2-28-26.1v-98.7c11.9-10.4,26.9-18.4,42.3-18.4c29.2,0,36.5,19.6,36.5,42.3
		v74.9c0,21.9-2.3,23.8-28,26.1v9.2h86.8v-9.2c-26.1-2.3-28-4.2-28-26.1V1257c0-30.7-17.7-52.2-50-52.2c-18.8,0-41.5,15-59.5,28.8
		L2325.7,1203.6L2325.7,1203.6L2325.7,1203.6z"/>
	<path class="st1" d="M238.7,1387.5c74.5-30.9,109.9-116.3,79-190.8c-30.9-74.5-116.3-109.9-190.8-79
		c-74.5,30.9-109.9,116.3-79,190.8C78.8,1383,164.2,1418.3,238.7,1387.5z"/>
	<path class="st2" d="M284.6,1286.7c-10.9-18.8-28.2-19-30.3-18.9l0-0.1l72.8-15.2l-72.8-15.1v0c0.8-0.7,14.9-13.2,36.1-13.5
		c16-0.2,29.9-19.8,21-34.9c0,0-2.6,23.7-32.5,15.8c-21-5.6-33.4,6.5-34.8,8l0,0l40.8-62.2l-62.2,40.8h0c0.1-0.9,1.2-19.8,16-35.1
		c11.2-11.5,7.1-35.1-9.8-39.5c0,0,14.9,18.6-11.8,34.1c-18.8,10.9-19,28.2-18.9,30.3h0l-15.2-72.8l-15.2,72.8h0
		c-0.6-0.7-13.2-14.9-13.5-36.1c-0.2-16-19.8-29.9-34.9-21c0,0,23.7,2.6,15.8,32.5c-5.6,21.1,6.6,33.4,8.1,34.8l0,0l-62.2-40.8
		l33.2,50.7l7.5,11.5l0,0c-0.6,0-19.7-1.1-35.1-16c-11.5-11.2-35.1-7.1-39.5,9.8c0,0,18.6-14.9,34.1,11.8c11,18.8,28.3,19,30.3,18.9
		l0,0.1l-72.8,15.1l72.8,15.2v0c-0.5,0.4-14.7,13.2-36.1,13.5c-16,0.2-29.9,19.8-21,34.9c0,0,2.6-23.7,32.5-15.8
		c21.1,5.6,33.5-6.6,34.8-8.1l0,0.1l-40.7,62.2l62.2-40.7c0,0.6-1.1,19.7-16,35.1c-11.2,11.5-7.1,35.2,9.8,39.5
		c0,0-14.9-18.6,11.8-34.1c18.8-10.9,19-28.3,18.9-30.3c0,0,0,0,0.1,0l15.2,72.8L198,1324v0c0.5,0.6,13.2,14.8,13.5,36.1
		c0.2,16,19.8,29.9,34.9,21c0,0-23.7-2.6-15.8-32.5c5.6-21-6.5-33.4-8.1-34.8c0,0,0,0,0.1,0l62.2,40.7l-21.5-32.8l-19.2-29.4
		c0.8,0,19.8,1.2,35.1,16c11.5,11.1,35.1,7.1,39.5-9.8C318.7,1298.5,300.1,1313.4,284.6,1286.7L284.6,1286.7z"/>
</g>
</svg>
