<?xml version="1.0" encoding="UTF-8"?><svg id="Layer_1" xmlns="http://www.w3.org/2000/svg" viewBox="0 0 612 576"><defs><style>.cls-1,.cls-2{stroke-width:0px;}.cls-2{fill:#fff;}</style></defs><rect class="cls-2" x="5.77" y="67.7" width="596.89" height="441.1"/><path class="cls-1" d="m364.3,490.1h28.38V86.1l.12-.3h-115.49v182h115.25v21.9h-115.37v200.5h84.53c.86-.1,1.72-.1,2.58-.1h0Z"/><path class="cls-1" d="m0,408.9v-6.1c.49-88.3.98-176.6,1.47-264.9.12-23.5.12-47.1,0-70.6,0-2.4,1.11-3.3,5.04-3.3,42.51.1,85.02.1,127.41,0,3.56,0,5.04.4,5.04,3-.12,112.9-.12,225.8-.25,338.8,0,.5,0,.9-.74,1.5-.74-1.9-1.72-3.8-2.33-5.7-5.04-14.8-9.95-29.6-14.99-44.4-5.41-16.4-10.81-32.9-16.22-49.3-4.79-14.6-9.71-29.1-14.38-43.7-3.32-10.4-6.27-20.8-9.34-31.3-2.58-8.8-5.04-17.7-7.74-26.5-.25-.7-1.6-1.3-2.33-1.9-.98.6-2.58,1.2-2.7,2-4.67,14.5-8.97,29-13.64,43.5-7.25,22.1-14.74,44.2-22.12,66.3-4.67,14-9.34,28-14.01,42.1-5.41,16.3-11.06,32.6-16.46,49-.25.6-.61,1.2-.86,1.7-.37-.1-.61-.1-.86-.2h0Z"/><path class="cls-1" d="m372.9,490.2h50.99V85.8c-16.71,0-33.54,0-50.38.1-1.11,2.3-.61,4.7-.61,7.1-.12,132.3-.12,264.8,0,397.2h0Z"/><path class="cls-1" d="m569.73,511.8h-125.08V159.7c.25,0,.49-.1.74-.1,41.41,117.4,82.94,234.7,124.34,352.2Z"/><path class="cls-1" d="m446.62,64.3h123.11v346.7c-.25,0-.37.1-.61.1-40.79-115.5-81.58-231-122.5-346.8h0Z"/><path class="cls-1" d="m593.32,512c-.12-2.1-.25-3.9-.25-5.7V67c0-2.4.37-3.1,1.84-3.1,5.16.2,10.32.2,15.36.1,1.23,0,1.72.5,1.72,2.7-.25,63.4-.49,126.8-.61,190.2,0,9,.25,18,.25,27,0,12.1-.25,24.1-.25,36.2-.12,44.3-.25,88.6-.25,133v55.6c0,2.4-.25,3.4-1.97,3.3-5.04-.1-10.32,0-15.85,0h0Z"/><path class="cls-1" d="m159.6,511.6c0-1-1.35-3.1,0-3.1,144.12,0,144.12-441-.12-441,0-2.7.74-3.6,4.3-3.5,9.58.2,19.17.2,28.75,0,2.83,0,3.81.6,3.81,3-.37,53.8-.74,107.6-.86,161.4-.12,21.9.49,43.8.37,65.7-.12,15.1-.98,30.1-.98,45.2-.12,42.3-.12,84.7-.12,127,0,14.4-.12,28.7-.12,43.1,0,1.5-.12,2.7-2.58,2.7-10.32-.1-20.76,0-31.21-.1-.12,0-.49-.2-1.23-.4h0Z"/><path class="cls-1" d="m70.28,310.6c22.36,66.9,44.72,133.9,67.21,201.1H1.84c22.36-67,44.85-134.1,67.33-201.2.37.1.74.1,1.11.1h0Z"/></svg>